<?xml version="1.0" encoding="UTF-8"?>
<!DOCTYPE svg PUBLIC "-//W3C//DTD SVG 1.1//EN" "http://www.w3.org/Graphics/SVG/1.1/DTD/svg11.dtd">
<!-- Creator: CorelDRAW 2021 (64-Bit) -->
<svg xmlns="http://www.w3.org/2000/svg" xml:space="preserve" width="15mm" height="15mm" version="1.1" style="shape-rendering:geometricPrecision; text-rendering:geometricPrecision; image-rendering:optimizeQuality; fill-rule:evenodd; clip-rule:evenodd"
viewBox="0 0 1500 1500"
 xmlns:xlink="http://www.w3.org/1999/xlink"
 xmlns:xodm="http://www.corel.com/coreldraw/odm/2003">
 <defs>
  <style type="text/css">
   <![CDATA[
    .fil0 {fill:#667788}
   ]]>
  </style>
 </defs>
 <g id="Livello_x0020_1">
  <metadata id="CorelCorpID_0Corel-Layer"/>
  <polygon class="fil0" points="607.04,851.82 591.16,755 487.07,755 487.07,255.01 406.17,255.01 234.2,333.03 248.64,428.42 377.26,372.05 377.26,755 242.86,755 242.86,851.82 "/>
  <polygon class="fil0" points="1083.89,279.55 985.61,253.53 413.34,1227.51 511.62,1253.53 "/>
  <path class="fil0" d="M1258.74 1241.98l-15.88 -98.27 -241.33 0 138.73 -135.84c72.25,-70.81 108.37,-118.48 108.37,-192.21 0,-181.72 -231.81,-217 -374.28,-111.27l17.36 102.61c103.62,-76.91 237,-86.64 237,20.2 0,39.02 -20.25,69.37 -67.92,118.49l-203.76 209.53 0 86.72 401.71 0.04z"/>
 </g>
</svg>
