<?xml version="1.0" encoding="UTF-8"?>
<!DOCTYPE svg PUBLIC "-//W3C//DTD SVG 1.1//EN" "http://www.w3.org/Graphics/SVG/1.1/DTD/svg11.dtd">
<!-- Creator: CorelDRAW 2021 (64-Bit) -->
<svg xmlns="http://www.w3.org/2000/svg" xml:space="preserve" width="60mm" height="6.016mm" version="1.1" style="shape-rendering:geometricPrecision; text-rendering:geometricPrecision; image-rendering:optimizeQuality; fill-rule:evenodd; clip-rule:evenodd"
viewBox="0 0 6000 601.6"
 xmlns:xlink="http://www.w3.org/1999/xlink"
 xmlns:xodm="http://www.corel.com/coreldraw/odm/2003">
 <defs>
  <style type="text/css">
   <![CDATA[
    .fil1 {fill:#00E054}
    .fil3 {fill:#40BCF4}
    .fil0 {fill:#FF8000}
    .fil2 {fill:white}
    .fil4 {fill:url(#id0)}
   ]]>
  </style>
  <linearGradient id="id0" gradientUnits="userSpaceOnUse" x1="3883.64" y1="13.94" x2="3883.64" y2="603.68">
   <stop offset="0" style="stop-opacity:1; stop-color:white"/>
   <stop offset="1" style="stop-opacity:1; stop-color:#E2E6E9"/>
  </linearGradient>
 </defs>
 <g id="Livello_x0020_1">
  <metadata id="CorelCorpID_0Corel-Layer"/>
  <path id="Oval-32" class="fil0" d="M543.61 330.96c0,-151.68 -122.96,-274.64 -274.64,-274.64 -151.68,0 -274.64,122.96 -274.64,274.64 0,151.68 122.96,274.64 274.64,274.64 151.68,0 274.64,-122.96 274.64,-274.64z"/>
  <path id="Oval-32_0" class="fil1" d="M1014.42 330.96c0,-151.68 -122.96,-274.64 -274.64,-274.64 -151.67,0 -274.63,122.96 -274.63,274.64 0,151.68 122.96,274.64 274.63,274.64 151.68,0 274.64,-122.96 274.64,-274.64z"/>
  <path id="Combined-Shape" class="fil2" d="M504.38 189.43c24.9,41.33 39.23,89.76 39.23,141.53 0,51.76 -14.33,100.17 -39.22,141.51 -24.93,-41.34 -39.25,-89.75 -39.25,-141.51 0,-49.74 13.21,-96.38 36.34,-136.62l2.9 -4.91z"/>
  <path id="Oval-32_1" class="fil3" d="M1485.24 330.96c0,-151.68 -122.96,-274.64 -274.64,-274.64 -151.68,0 -274.64,122.96 -274.64,274.64 0,151.68 122.96,274.64 274.64,274.64 151.68,0 274.64,-122.96 274.64,-274.64z"/>
  <path id="Combined-Shape_2" class="fil2" d="M975.2 189.43c24.9,41.33 39.22,89.76 39.22,141.53 0,51.76 -14.32,100.17 -39.21,141.51 -24.93,-41.34 -39.26,-89.75 -39.26,-141.51 0,-49.74 13.22,-96.38 36.34,-136.62l2.91 -4.91z"/>
  <path id="Combined-Shape_3" class="fil4" d="M2415.14 140.42c157.11,0 223.78,101.92 223.78,222.24l0 49.82 -313.44 0c6.88,53.64 37.55,82.76 91.19,82.76 39.09,0 60.55,-16.85 71.28,-42.14l147.91 0c-24.53,93.49 -93.5,152.5 -223.03,152.5 -154.03,0 -226.07,-85.83 -226.07,-223.01l0 -13.03c0,-142.54 89.67,-229.14 228.38,-229.14zm1134.63 0c157.1,0 223.78,101.92 223.78,222.24l0 49.82 -313.45 0c6.9,53.64 37.55,82.76 91.19,82.76 39.1,0 60.55,-16.85 71.29,-42.14l147.9 0c-24.53,93.49 -93.5,152.5 -223.01,152.5 -154.04,0 -226.09,-85.83 -226.09,-223.01l0 -13.03c0,-142.54 89.67,-229.14 228.39,-229.14zm764.78 -136.42l0 216.88c23.77,-50.58 68.21,-80.46 130.28,-80.46 99.64,0.76 173.22,68.96 173.22,219.18l0 13.79c0,150.98 -66.69,232.21 -176.28,232.21 -67.44,0 -111.12,-33.72 -132.58,-85.82l-10.73 74.33 -121.86 0 0 -590.11 137.95 0zm570.9 136.42c133.36,0 223.8,79.7 223.8,228.37l0 13.8c0,147.91 -88.91,223.01 -224.55,223.01 -144.09,0 -223.79,-75.1 -223.79,-223.01l0 -13.8c0,-150.98 93.5,-228.37 224.54,-228.37zm1108.88 -136.42l0 590.11 -118.78 0 -13.03 -77.4c-22.22,52.1 -66.67,85.84 -134.87,85.84 -107.3,0 -174.74,-77.41 -174.74,-229.92l0 -13.04c0,-149.44 73.58,-218.41 175.49,-218.41 64.39,0 106.54,26.83 128.76,72.04l0 -209.22 137.17 0zm-4077.29 40.61l0 412.32 230.67 0 0 137.17 -374.75 0 0 -549.49 144.08 0zm947.94 -6.13l0 111.13 110.03 0c16.86,0 28.36,-1.53 43.68,-4.61 28.36,-3.82 39.09,-16.08 43.68,-53.64 2.31,-18.39 3.83,-34.49 4.61,-52.88l114.95 0 0 111.13 105.76 0 0 123.39 -105.76 0 0 106.52c0,76.63 11.5,85.08 77.4,85.08l28.36 0 0 129.5 -70.51 0c-134.11,0 -167.06,-48.27 -167.06,-186.99l0 -134.11 -185.14 0 0 106.52c0,76.63 11.49,85.08 77.4,85.08l28.35 0 0 129.5 -70.5 0c-134.13,0 -167.07,-48.27 -167.07,-186.99l0 -134.11 -75.1 0 0 -115.73c16.86,0 28.35,-1.53 43.68,-4.6 28.36,-3.83 39.09,-16.09 43.68,-53.65 2.31,-18.38 3.84,-42.15 4.59,-60.54l114.97 0zm1261.84 105l0 146.37 -52.1 0c-81.26,0 -101.17,28.37 -101.17,107.29l0 196.96 -142.56 0 0 -444.49 111.9 0 19.16 91.2c14.56,-68.98 59.77,-97.33 139.48,-97.33l25.29 0zm1132.59 6.13l72.81 112.66 72.8 -112.66 157.12 0 -147.92 211.52 157.87 232.97 -159.41 0 -81.23 -125.68 -81.23 125.68 -164.01 0 164.01 -231.44 -148.67 -213.05 157.86 0zm-373.19 108.82c-52.12,0 -86.6,36.03 -86.6,110.36l0 12.26c0,68.21 34.48,104.24 85.83,104.24 51.36,0 85.08,-34.48 85.08,-104.24l0 -12.26c0,-72.8 -30.66,-110.36 -84.31,-110.36zm-488.9 -2.29c-50.58,0 -85.06,39.08 -85.06,104.22l0 9.97c0,77.4 33.72,113.43 84.3,113.43 51.35,0 82.77,-32.95 82.77,-111.13l0 -10.74c0,-70.51 -33.72,-105.75 -82.01,-105.75zm1378.61 0c-52.12,0 -82.76,36.02 -82.76,105.75l0 9.97c0,79.71 32.94,111.9 80.45,111.9 51.35,0 85.07,-36.79 85.07,-111.9l0 -9.97c0,-67.43 -32.95,-105.75 -82.76,-105.75zm-3359.26 -9.97c-52.11,0 -82,26.83 -91.19,78.94l175.49 0c-6.13,-49.82 -32.17,-78.94 -84.3,-78.94zm1134.62 0c-52.11,0 -81.99,26.83 -91.19,78.94l175.5 0c-6.13,-49.82 -32.18,-78.94 -84.31,-78.94z"/>
 </g>
</svg>
