<svg class="pattern -left" role="presentation" width="320" height="390" viewBox="0 0 320 390" xmlns="http://www.w3.org/2000/svg" xmlns:xlink="http://www.w3.org/1999/xlink"><g fill="none" fill-rule="evenodd"><g transform="translate(318 70)"><rect fill="#00E054" y="86" width="4" height="80" rx="2"/><rect fill="#40BCF4" width="4" height="77" rx="2"/><rect fill="#FF8000" y="202" width="4" height="32" rx="2"/><rect fill="#FF8000" y="238" width="4" height="4" rx="2"/></g><g transform="translate(298 121)"><rect fill="#00E054" y="55" width="4" height="90" rx="2"/><rect fill="#40BCF4" width="4" height="48" rx="2"/><rect fill="#FF8000" y="169" width="4" height="22" rx="2"/></g><g transform="translate(278 111)"><rect fill="#00E054" y="66" width="4" height="70" rx="2"/><rect fill="#40BCF4" width="4" height="28" rx="2"/><rect fill="#FF8000" y="152" width="4" height="52" rx="2"/></g><g transform="translate(258 84)"><rect fill="#00E054" y="78" width="4" height="90" rx="2"/><rect fill="#FF8000" y="201" width="4" height="52" rx="2"/><rect fill="#40BCF4" width="4" height="60" rx="2"/></g><g transform="translate(238 80)"><rect fill="#00E054" y="96" width="4" height="90" rx="2"/><rect fill="#00E054" y="68" width="4" height="20" rx="2"/><rect fill="#40BCF4" width="4" height="47" rx="2"/><rect fill="#FF8000" y="212" width="4" height="32" rx="2"/></g><g transform="translate(218 96)"><rect fill="#00E054" y="48" width="4" height="70" rx="2"/><rect fill="#40BCF4" y="12" width="4" height="18" rx="2"/><rect fill="#40BCF4" width="4" height="4" rx="2"/><rect fill="#FF8000" y="144" width="4" height="22" rx="2"/></g><g transform="translate(198 111)"><rect fill="#00E054" y="46" width="4" height="60" rx="2"/><rect fill="#00E054" y="114" width="4" height="4" rx="2"/><rect fill="#40BCF4" width="4" height="28" rx="2"/><rect fill="#FF8000" y="142" width="4" height="42" rx="2"/></g><g transform="translate(178 40)"><rect fill="#00E054" y="102" width="4" height="100" rx="2"/><rect fill="#FF8000" y="210" width="4" height="12" rx="2"/><rect fill="#40BCF4" width="4" height="70" rx="2"/></g><g transform="translate(158 86)"><rect fill="#00E054" y="36" width="4" height="80" rx="2"/><rect fill="#40BCF4" width="4" height="28" rx="2"/><rect fill="#FF8000" y="132" width="4" height="32" rx="2"/></g><g transform="translate(138 86)"><rect fill="#00E054" y="36" width="4" height="80" rx="2"/><rect fill="#40BCF4" width="4" height="28" rx="2"/><rect fill="#FF8000" y="132" width="4" height="32" rx="2"/></g><g transform="translate(118 111)"><rect fill="#00E054" y="36" width="4" height="80" rx="2"/><rect fill="#40BCF4" width="4" height="28" rx="2"/><rect fill="#FF8000" y="132" width="4" height="32" rx="2"/></g><g transform="translate(98 82)"><rect fill="#00E054" y="102" width="4" height="100" rx="2"/><rect fill="#FF8000" y="210" width="4" height="12" rx="2"/><rect fill="#40BCF4" width="4" height="70" rx="2"/></g><g transform="translate(78 74)"><rect fill="#00E054" y="51" width="4" height="170" rx="2"/><rect fill="#40BCF4" width="4" height="4" rx="2"/><rect fill="#40BCF4" y="23" width="4" height="20" rx="2"/><rect fill="#FF8000" y="246" width="4" height="34" rx="2"/></g><g transform="translate(58 127)"><rect fill="#00E054" y="64" width="4" height="40" rx="2"/><rect fill="#FF8000" y="144" width="4" height="74" rx="2"/><rect fill="#40BCF4" width="4" height="20" rx="2"/></g><g transform="translate(38 77)"><rect fill="#00E054" y="104" width="4" height="90" rx="2"/><rect fill="#FF8000" y="204" width="4" height="64" rx="2"/><rect fill="#40BCF4" width="4" height="24" rx="2"/><rect fill="#40BCF4" y="32" width="4" height="50" rx="2"/></g><g transform="translate(18 117)"><rect fill="#00E054" y="84" width="4" height="70" rx="2"/><rect fill="#FF8000" y="184" width="4" height="44" rx="2"/><rect fill="#FF8000" y="232" width="4" height="4" rx="2"/><rect fill="#40BCF4" width="4" height="30" rx="2"/></g><g transform="translate(-2 127)"><rect fill="#00E054" y="42" width="4" height="76" rx="2"/><rect fill="#FF8000" y="194" width="4" height="44" rx="2"/><rect fill="#40BCF4" width="4" height="10" rx="2"/></g></g></svg>