<?xml version="1.0" encoding="UTF-8"?>
<!DOCTYPE svg PUBLIC "-//W3C//DTD SVG 1.1//EN" "http://www.w3.org/Graphics/SVG/1.1/DTD/svg11.dtd">
<!-- Creator: CorelDRAW 2021 (64-Bit) -->
<svg xmlns="http://www.w3.org/2000/svg" xml:space="preserve" width="15mm" height="15mm" version="1.1" style="shape-rendering:geometricPrecision; text-rendering:geometricPrecision; image-rendering:optimizeQuality; fill-rule:evenodd; clip-rule:evenodd"
viewBox="0 0 1500 1500"
 xmlns:xlink="http://www.w3.org/1999/xlink"
 xmlns:xodm="http://www.corel.com/coreldraw/odm/2003">
 <defs>
  <style type="text/css">
   <![CDATA[
    .fil0 {fill:#667788}
   ]]>
  </style>
 </defs>
 <g id="Livello_x0020_1">
  <metadata id="CorelCorpID_0Corel-Layer"/>
  <path class="fil0" d="M432.8 1204.72c0,65.06 -98.83,65.06 -98.83,0l0 -225.6c0,-27.28 22.14,-49.42 49.41,-49.42l225.35 0c65.08,0 65.06,98.84 0,98.84l-120.34 0c233.11,231.06 627.59,63.73 627.59,-270.07 0,-65.36 98.84,-64.79 98.84,0 0,411.37 -481.54,627.87 -782.02,353.29l0 92.96zm622.39 -902.41c0,-65.04 98.84,-65.07 98.84,0l0 225.59c0,32.05 -25.51,51.39 -60.07,49.42l-214.68 0c-65.08,0 -65.01,-98.83 0,-98.83l114.41 0c-236.38,-216.48 -616.7,-46.54 -616.7,279.98 0,65.06 -98.83,65.06 -98.83,0 0,-407.96 475.43,-625.42 777.03,-357.35l0 -98.81z"/>
 </g>
</svg>
