<svg class="pattern -right" role="presentation" width="320" height="390" viewBox="0 0 320 390" xmlns="http://www.w3.org/2000/svg" xmlns:xlink="http://www.w3.org/1999/xlink"><g fill="none" fill-rule="evenodd"><g transform="translate(318 63)"><rect fill="#00E054" y="67" width="4" height="80" rx="2"/><rect fill="#40BCF4" width="4" height="58" rx="2"/><rect fill="#FF8000" y="172" width="4" height="62" rx="2"/></g><g transform="translate(298 88)"><rect fill="#00E054" y="59" width="4" height="70" rx="2"/><rect fill="#40BCF4" width="4" height="28" rx="2"/><rect fill="#FF8000" y="162" width="4" height="42" rx="2"/></g><g transform="translate(278 78)"><rect fill="#00E054" y="86" width="4" height="50" rx="2"/><rect fill="#40BCF4" width="4" height="70" rx="2"/><rect fill="#FF8000" y="174" width="4" height="60" rx="2"/></g><g transform="translate(258 94)"><rect fill="#00E054" y="70" width="4" height="99" rx="2"/><rect fill="#40BCF4" width="4" height="48" rx="2"/><rect fill="#FF8000" y="196" width="4" height="30" rx="2"/></g><g transform="translate(238 83)"><rect fill="#00E054" y="104" width="4" height="80" rx="2"/><rect fill="#40BCF4" width="4" height="58" rx="2"/><rect fill="#FF8000" y="192" width="4" height="32" rx="2"/></g><g transform="translate(218 108)"><rect fill="#00E054" y="79" width="4" height="40" rx="2"/><rect fill="#40BCF4" width="4" height="48" rx="2"/><rect fill="#FF8000" y="152" width="4" height="62" rx="2"/><rect fill="#FF8000" y="222" width="4" height="4" rx="2"/></g><g transform="translate(198 78)"><rect fill="#00E054" y="112" width="4" height="60" rx="2"/><rect fill="#40BCF4" width="4" height="80" rx="2"/><rect fill="#FF8000" y="184" width="4" height="30" rx="2"/><rect fill="#FF8000" y="222" width="4" height="10" rx="2"/></g><g transform="translate(178 64)"><rect fill="#00E054" y="100" width="4" height="119" rx="2"/><rect fill="#40BCF4" width="4" height="68" rx="2"/><rect fill="#FF8000" y="226" width="4" height="10" rx="2"/></g><g transform="translate(158 91)"><rect fill="#00E054" y="88" width="4" height="80" rx="2"/><rect fill="#40BCF4" width="4" height="28" rx="2"/><rect fill="#FF8000" y="184" width="4" height="32" rx="2"/></g><g opacity=".8" transform="translate(138 100)"><rect fill="#00E054" y="63" width="4" height="50" rx="2"/><rect fill="#40BCF4" width="4" height="28" rx="2"/><rect fill="#FF8000" y="138" width="4" height="82" rx="2"/></g><g transform="translate(118 100)"><rect fill="#00E054" y="66" width="4" height="50" rx="2"/><rect fill="#40BCF4" width="4" height="28" rx="2"/><rect fill="#FF8000" y="172" width="4" height="32" rx="2"/></g><g transform="translate(98 110)"><rect fill="#00E054" y="66" width="4" height="30" rx="2"/><rect fill="#40BCF4" width="4" height="38" rx="2"/><rect fill="#FF8000" y="131" width="4" height="42" rx="2"/><rect fill="#FF8000" y="182" width="4" height="12" rx="2"/></g><g transform="translate(78 107)"><rect fill="#00E054" y="46" width="4" height="60" rx="2"/><rect fill="#40BCF4" width="4" height="10" rx="2"/><rect fill="#FF8000" y="149" width="4" height="32" rx="2"/></g><g transform="translate(58 76)"><rect fill="#00E054" y="63" width="4" height="60" rx="2"/><rect fill="#40BCF4" y="18" width="4" height="28" rx="2"/><rect fill="#40BCF4" width="4" height="10" rx="2"/><rect fill="#FF8000" y="185" width="4" height="36" rx="2"/></g><g transform="translate(38 39)"><rect fill="#00E054" y="83" width="4" height="74" rx="2"/><rect fill="#40BCF4" width="4" height="77" rx="2"/><rect fill="#FF8000" y="214" width="4" height="22" rx="2"/></g><g transform="translate(18 81)"><rect fill="#00E054" y="56" width="4" height="70" rx="2"/><rect fill="#40BCF4" width="4" height="28" rx="2"/><rect fill="#FF8000" y="172" width="4" height="42" rx="2"/></g><g transform="translate(-2 101)"><rect fill="#00E054" y="36" width="4" height="80" rx="2"/><rect fill="#40BCF4" width="4" height="10" rx="2"/><rect fill="#FF8000" y="124" width="4" height="72" rx="2"/></g></g></svg>